<svg xmlns="http://www.w3.org/2000/svg" width="300" height="200" viewBox="0 0 300 200">
  <!-- Fondo -->
  <rect width="300" height="200" fill="#f8f9fa" rx="10" ry="10"/>
  
  <!-- Barra lateral -->
  <rect x="20" y="20" width="60" height="160" fill="#1e293b" rx="5" ry="5"/>
  
  <!-- Iconos de navegación -->
  <circle cx="50" cy="40" r="8" fill="#3b82f6"/>
  <circle cx="50" cy="70" r="8" fill="#64748b"/>
  <circle cx="50" cy="100" r="8" fill="#64748b"/>
  <circle cx="50" cy="130" r="8" fill="#64748b"/>
  
  <!-- Área principal -->
  <rect x="90" y="20" width="190" height="50" fill="white" stroke="#d1d5db" stroke-width="1" rx="5" ry="5"/>
  <text x="110" y="40" font-family="Arial" font-size="14" fill="#1e293b" font-weight="bold">Panel de Control</text>
  <text x="110" y="58" font-family="Arial" font-size="10" fill="#64748b">Resumen de actividad</text>
  
  <!-- Gráfico de barras -->
  <rect x="90" y="80" width="90" height="100" fill="white" stroke="#d1d5db" stroke-width="1" rx="5" ry="5"/>
  <rect x="100" y="150" width="10" height="20" fill="#3b82f6" rx="2" ry="2"/>
  <rect x="120" y="130" width="10" height="40" fill="#3b82f6" rx="2" ry="2"/>
  <rect x="140" y="110" width="10" height="60" fill="#3b82f6" rx="2" ry="2"/>
  <rect x="160" y="90" width="10" height="80" fill="#3b82f6" rx="2" ry="2"/>
  
  <!-- Gráfico circular -->
  <rect x="190" y="80" width="90" height="100" fill="white" stroke="#d1d5db" stroke-width="1" rx="5" ry="5"/>
  <circle cx="235" cy="130" r="30" fill="none" stroke="#d1d5db" stroke-width="1"/>
  <path d="M 235 130 L 235 100 A 30 30 0 0 1 261 140 Z" fill="#3b82f6"/>
  <path d="M 235 130 L 261 140 A 30 30 0 0 1 220 155 Z" fill="#10b981"/>
  <path d="M 235 130 L 220 155 A 30 30 0 0 1 235 100 Z" fill="#f59e0b"/>
</svg>