<svg xmlns="http://www.w3.org/2000/svg" width="1200" height="600" viewBox="0 0 1200 600">
  <!-- Gradient background -->
  <defs>
    <linearGradient id="grad1" x1="0%" y1="0%" x2="100%" y2="100%">
      <stop offset="0%" style="stop-color:#4CAF50;stop-opacity:0.8" />
      <stop offset="100%" style="stop-color:#2196F3;stop-opacity:0.9" />
    </linearGradient>
    <pattern id="pattern1" width="50" height="50" patternUnits="userSpaceOnUse">
      <circle cx="25" cy="25" r="1" fill="white" opacity="0.3"/>
    </pattern>
  </defs>
  
  <!-- Main background -->
  <rect width="1200" height="600" fill="url(#grad1)" />
  
  <!-- Pattern overlay -->
  <rect width="1200" height="600" fill="url(#pattern1)" />
  
  <!-- Decorative elements -->
  <circle cx="200" cy="150" r="100" fill="white" opacity="0.1" />
  <circle cx="1000" cy="450" r="150" fill="white" opacity="0.1" />
  
  <!-- Abstract shopping elements -->
  <g opacity="0.2">
    <!-- Shopping cart icon -->
    <path d="M300,300 L350,300 L370,350 L290,350 Z" stroke="white" stroke-width="3" fill="none"/>
    <circle cx="310" cy="360" r="10" stroke="white" stroke-width="2" fill="none"/>
    <circle cx="350" cy="360" r="10" stroke="white" stroke-width="2" fill="none"/>
    
    <!-- Package icon -->
    <rect x="800" y="200" width="80" height="80" stroke="white" stroke-width="3" fill="none"/>
    <line x1="800" y1="220" x2="880" y2="220" stroke="white" stroke-width="2"/>
    <line x1="840" y1="200" x2="840" y2="280" stroke="white" stroke-width="2"/>
    
    <!-- Credit card icon -->
    <rect x="500" y="400" width="100" height="60" rx="5" ry="5" stroke="white" stroke-width="3" fill="none"/>
    <line x1="500" y1="430" x2="600" y2="430" stroke="white" stroke-width="2"/>
    <rect x="510" y="440" width="40" height="10" stroke="white" stroke-width="1" fill="none"/>
  </g>
  
  <!-- Wave pattern at bottom -->
  <path d="M0,500 Q300,450 600,500 T1200,500 L1200,600 L0,600 Z" fill="white" opacity="0.1"/>
</svg>